<svg version="1.1" xmlns="http://www.w3.org/2000/svg" width="1024" height="1024">
<path d="M0 0 C337.92 0 675.84 0 1024 0 C1024 337.92 1024 675.84 1024 1024 C686.08 1024 348.16 1024 0 1024 C0 686.08 0 348.16 0 0 Z " fill="#FEFEFE" transform="translate(0,0)"/>
<path d="M0 0 C1.236 0.327 1.236 0.327 2.496 0.66 C6.5 1.724 10.475 2.834 14.426 4.082 C22.088 6.452 29.894 8.631 37.887 6.496 C47.266 4.294 57.293 5.66 65.562 10.5 C68.702 11.144 69.462 10.364 72.125 8.688 C73.119 7.982 73.119 7.982 74.133 7.262 C79.986 3.306 89.203 4.174 96 5 C108.266 8.652 117.318 17.617 123.305 28.639 C131.268 43.955 134.802 59.16 136.858 76.146 C137.99 85.368 139.624 94.443 141.497 103.541 C141.981 105.906 142.441 108.274 142.898 110.645 C146.324 127.793 152.636 143.679 161 159 C161.554 160.024 161.554 160.024 162.12 161.069 C168.008 171.825 174.897 181.48 182.499 191.085 C184.636 193.811 186.691 196.59 188.75 199.375 C192.316 204.147 196.031 208.771 199.824 213.363 C203.267 217.535 206.637 221.763 210 226 C210.404 226.509 210.809 227.017 211.226 227.542 C241.188 265.27 272.193 307.364 269 358 C267.334 371.421 260.69 384.611 250 393 C249.351 393.274 248.702 393.548 248.033 393.83 C245.546 394.972 243.89 396.006 242 398 C240.853 402.313 241.069 406.522 241.219 410.957 C241.23 412.215 241.241 413.473 241.253 414.769 C241.29 418.104 241.362 421.433 241.451 424.766 C241.533 428.171 241.569 431.577 241.609 434.982 C241.698 441.656 241.831 448.328 242 455 C242.211 454.125 242.422 453.25 242.639 452.348 C249.769 422.914 249.769 422.914 253.188 412.5 C253.4 411.834 253.613 411.167 253.833 410.481 C256.382 403.055 259.926 396.705 266.887 392.852 C270.645 391.337 272.952 391.347 277 392 C280.805 394.138 283.371 396.951 285 401 C285.426 404.508 285.333 408.031 285.312 411.562 C285.304 413.113 285.304 413.113 285.295 414.695 C285.04 431.096 281.286 446.782 277.793 462.746 C275.695 472.338 273.693 481.951 271.688 491.562 C271.308 493.379 270.928 495.196 270.549 497.013 C269.77 500.74 268.991 504.467 268.213 508.194 C266.327 517.225 264.436 526.254 262.545 535.284 C261.581 539.891 260.617 544.498 259.652 549.105 C259.329 550.649 259.006 552.192 258.683 553.735 C258.345 555.351 258.345 555.351 258 557 C258.66 557 259.32 557 260 557 C259.603 562.563 258.634 567.698 257.23 573.098 C255.65 579.281 254.19 585.482 252.816 591.715 C252.632 592.549 252.447 593.383 252.257 594.242 C251.502 597.663 250.749 601.084 250.003 604.507 C247.456 616.169 244.481 627.583 241 639 C240.453 640.895 239.91 642.792 239.375 644.691 C215.486 729.335 215.486 729.335 184.441 748.141 C177.196 752.055 169.931 754.816 162 757 C161.081 757.256 160.161 757.513 159.214 757.777 C145.541 761.549 131.948 764.471 117.932 766.694 C116.947 766.85 115.961 767.007 114.945 767.168 C113.623 767.373 113.623 767.373 112.274 767.583 C109.847 767.973 109.847 767.973 107 769 C74.694 773.731 38.796 775.613 6.777 768.607 C3.817 767.96 0.849 767.375 -2.125 766.797 C-11.784 764.89 -21.38 762.737 -30.938 760.375 C-32.117 760.084 -32.117 760.084 -33.32 759.787 C-37.888 758.627 -42.327 757.262 -46.764 755.67 C-49.481 754.856 -52.198 754.422 -55 754 C-54.526 758.438 -54.045 762.875 -53.562 767.312 C-53.428 768.575 -53.293 769.838 -53.154 771.139 C-52.956 772.951 -52.956 772.951 -52.754 774.801 C-52.633 775.916 -52.513 777.032 -52.389 778.181 C-52.078 781.072 -52.078 781.072 -51 784 C-50.929 786.739 -50.906 789.45 -50.938 792.188 C-50.944 793.312 -50.944 793.312 -50.951 794.459 C-50.963 796.306 -50.981 798.153 -51 800 C-56.348 800.557 -61.697 801.108 -67.046 801.654 C-68.857 801.84 -70.667 802.027 -72.477 802.216 C-75.116 802.491 -77.755 802.76 -80.395 803.027 C-81.713 803.163 -81.713 803.163 -83.058 803.301 C-88.291 803.814 -93.483 804.103 -98.738 804.244 C-105.993 804.457 -111.325 804.92 -117.683 808.752 C-122.15 811.158 -127.177 811.782 -132.125 812.688 C-134.19 813.086 -136.255 813.486 -138.32 813.887 C-139.297 814.073 -140.274 814.259 -141.28 814.45 C-143.639 814.927 -145.951 815.474 -148.277 816.086 C-152.012 817.003 -155.617 817.52 -159.438 817.938 C-165.072 818.583 -170.617 819.442 -176.188 820.5 C-183.798 821.932 -191.419 822.714 -199.134 823.354 C-199.984 823.425 -200.835 823.497 -201.711 823.57 C-202.467 823.63 -203.223 823.689 -204.001 823.75 C-206.205 823.959 -206.205 823.959 -209 825 C-222.589 826.998 -236.145 827.344 -249.862 827.316 C-253.128 827.312 -256.394 827.336 -259.66 827.361 C-291.151 827.461 -291.151 827.461 -301 820 C-303.761 817.094 -304.431 815.114 -304.438 811.125 C-304.211 804.695 -301.618 801.691 -297.25 797.125 C-283.296 785.915 -264.712 781.792 -247.93 776.785 C-231.215 771.9 -231.215 771.9 -218 761 C-216.85 758.702 -215.929 756.402 -215 754 C-216.52 754.307 -216.52 754.307 -218.07 754.621 C-219.422 754.893 -220.773 755.165 -222.125 755.438 C-222.79 755.572 -223.455 755.707 -224.141 755.846 C-228.083 756.638 -232.029 757.363 -236 758 C-247.363 727.32 -254.005 695.477 -260.805 663.551 C-260.945 662.892 -261.085 662.234 -261.23 661.555 C-261.887 658.472 -262.54 655.387 -263.186 652.301 C-263.412 651.23 -263.638 650.158 -263.871 649.055 C-264.066 648.121 -264.262 647.188 -264.463 646.226 C-264.917 643.979 -264.917 643.979 -266 642 C-266.251 640.635 -266.461 639.262 -266.648 637.887 C-266.765 637.057 -266.882 636.228 -267.002 635.373 C-267.125 634.487 -267.248 633.601 -267.375 632.688 C-268.364 625.803 -269.519 619.056 -271.254 612.312 C-272.395 607.246 -273.171 602.125 -274 597 C-274.176 595.946 -274.353 594.891 -274.534 593.805 C-275.077 590.559 -275.602 587.311 -276.125 584.062 C-276.398 582.447 -276.398 582.447 -276.676 580.799 C-276.847 579.722 -277.019 578.645 -277.195 577.535 C-277.35 576.59 -277.505 575.646 -277.665 574.672 C-278.17 569.137 -278 563.558 -278 558 C-314.63 558 -351.26 558 -389 558 C-388.954 574.689 -388.907 591.379 -388.859 608.574 C-388.839 619.124 -388.82 629.674 -388.805 640.225 C-388.797 645.765 -388.789 651.306 -388.78 656.846 C-388.779 657.541 -388.778 658.235 -388.777 658.951 C-388.76 670.165 -388.728 681.379 -388.691 692.593 C-388.654 704.1 -388.632 715.607 -388.624 727.114 C-388.618 733.578 -388.606 740.042 -388.577 746.506 C-388.55 752.587 -388.542 758.668 -388.548 764.749 C-388.546 766.984 -388.538 769.218 -388.523 771.453 C-388.503 774.499 -388.508 777.545 -388.519 780.591 C-388.502 781.923 -388.502 781.923 -388.484 783.282 C-388.523 787.34 -388.717 789.515 -390.804 793.088 C-393 795 -393 795 -396.625 795 C-400 794 -400 794 -402 791 C-402.248 789.133 -402.248 789.133 -402.246 786.992 C-402.252 785.766 -402.252 785.766 -402.258 784.514 C-402.252 783.617 -402.247 782.719 -402.241 781.794 C-402.242 780.84 -402.244 779.886 -402.246 778.903 C-402.249 775.692 -402.238 772.481 -402.227 769.271 C-402.226 766.975 -402.227 764.679 -402.228 762.383 C-402.229 756.137 -402.217 749.892 -402.203 743.646 C-402.19 737.124 -402.189 730.602 -402.187 724.079 C-402.181 713.128 -402.169 702.177 -402.151 691.225 C-402.133 679.945 -402.118 668.664 -402.11 657.384 C-402.109 656.688 -402.109 655.993 -402.108 655.277 C-402.106 651.789 -402.103 648.302 -402.101 644.815 C-402.08 615.876 -402.043 586.938 -402 558 C-425.76 558.33 -449.52 558.66 -474 559 C-471.69 563.62 -469.38 568.24 -467 573 C-463.474 585.054 -463.456 596.898 -463.312 609.375 C-463.279 611.383 -463.245 613.391 -463.209 615.398 C-463.125 620.266 -463.058 625.133 -463 630 C-462.403 629.12 -461.806 628.239 -461.192 627.332 C-460.39 626.159 -459.588 624.986 -458.785 623.812 C-458.199 622.945 -458.199 622.945 -457.6 622.061 C-451.668 613.414 -444.172 605.391 -434 602 C-425.222 601.106 -425.222 601.106 -421.438 603.875 C-417.641 609.487 -418.168 616.461 -419 623 C-422.669 638.598 -431.801 652.834 -444 663 C-436.08 663.33 -428.16 663.66 -420 664 C-419.465 687.783 -420.733 710.934 -423.487 734.56 C-423.941 738.451 -424.356 742.345 -424.758 746.242 C-429.533 791.131 -429.533 791.131 -437.438 801.062 C-441.72 804.3 -445.463 804.134 -450.753 804.177 C-451.759 804.187 -451.759 804.187 -452.785 804.197 C-454.997 804.217 -457.209 804.228 -459.422 804.238 C-460.56 804.244 -460.56 804.244 -461.721 804.251 C-465.737 804.271 -469.753 804.286 -473.77 804.295 C-477.903 804.306 -482.036 804.341 -486.17 804.38 C-489.361 804.407 -492.552 804.415 -495.744 804.418 C-497.267 804.423 -498.79 804.435 -500.313 804.453 C-515.448 804.627 -515.448 804.627 -522 800 C-526.464 794.456 -527.34 785.868 -528.688 779.062 C-529.106 777.011 -529.526 774.96 -529.949 772.91 C-530.128 772.014 -530.307 771.119 -530.491 770.196 C-530.916 767.973 -530.916 767.973 -532 766 C-532.315 764.249 -532.585 762.489 -532.832 760.727 C-532.989 759.609 -533.146 758.491 -533.307 757.34 C-533.474 756.114 -533.641 754.888 -533.812 753.625 C-533.986 752.355 -534.16 751.086 -534.339 749.777 C-535.768 739.202 -537.007 728.606 -538.188 718 C-538.272 717.246 -538.356 716.491 -538.443 715.714 C-539.949 702.192 -541.173 688.807 -541.062 675.188 C-541.058 674.101 -541.053 673.015 -541.049 671.896 C-541.037 669.264 -541.019 666.632 -541 664 C-537.04 663.67 -533.08 663.34 -529 663 C-529.918 662.152 -530.836 661.304 -531.781 660.43 C-542.298 650.468 -552.268 639.01 -554 624 C-554.089 623.283 -554.178 622.567 -554.27 621.828 C-554.568 617.693 -554.414 614.742 -551.75 611.438 C-547.942 608.263 -544.094 608.089 -539.273 608.375 C-524.172 611.258 -512.989 624.189 -504.688 636.312 C-503.444 638.199 -502.209 640.091 -501 642 C-501.108 640.902 -501.108 640.902 -501.219 639.781 C-503.518 612.959 -504.485 581.478 -486.613 559.277 C-485.313 557.875 -485.313 557.875 -483 556 C-482.01 556 -481.02 556 -480 556 C-480 553.69 -480 551.38 -480 549 C-343.05 549 -206.1 549 -65 549 C-65 546.36 -65 543.72 -65 541 C-66.149 540.951 -67.297 540.902 -68.48 540.852 C-83.734 540.146 -98.146 539.076 -111.783 531.442 C-115.302 529.864 -117.604 529.622 -121.439 529.615 C-123.364 529.601 -123.364 529.601 -125.328 529.587 C-126.745 529.591 -128.161 529.596 -129.578 529.601 C-131.089 529.596 -132.6 529.589 -134.111 529.581 C-138.259 529.563 -142.406 529.564 -146.555 529.567 C-151.029 529.568 -155.503 529.551 -159.978 529.537 C-167.729 529.514 -175.48 529.502 -183.231 529.498 C-194.438 529.491 -205.644 529.468 -216.851 529.441 C-235.033 529.398 -253.215 529.368 -271.397 529.346 C-289.06 529.325 -306.722 529.298 -324.385 529.262 C-325.473 529.26 -326.562 529.258 -327.684 529.256 C-333.145 529.245 -338.607 529.234 -344.068 529.222 C-389.379 529.129 -434.689 529.057 -480 529 C-480 526.03 -480 523.06 -480 520 C-465.15 520 -450.3 520 -435 520 C-435 494.59 -435 469.18 -435 443 C-425.76 443 -416.52 443 -407 443 C-415.232 428.594 -428.473 419.807 -442.188 411 C-453.834 403.299 -463.097 394.358 -468 381 C-468.587 377.056 -468.117 375.243 -466.375 371.625 C-463.483 368.528 -460.553 368.441 -456.438 368.25 C-442.782 368.878 -432.008 377.482 -422.938 387.125 C-415.248 396.153 -409.731 406.176 -405 417 C-405.024 415.604 -405.024 415.604 -405.048 414.18 C-405.562 379.071 -405.562 379.071 -402 364 C-401.834 363.254 -401.667 362.509 -401.496 361.741 C-398.573 348.908 -393.839 330.463 -382 323 C-378.375 321.688 -378.375 321.688 -375 322 C-371.584 325.161 -369.75 327.402 -369.301 332.082 C-369.269 333.659 -369.275 335.236 -369.312 336.812 C-369.33 338.104 -369.33 338.104 -369.347 339.421 C-369.979 356.428 -375.709 373.098 -381.318 389.034 C-382.399 392.15 -383.391 395.289 -384.375 398.438 C-384.851 399.952 -384.851 399.952 -385.336 401.496 C-386.128 404.052 -386.128 404.052 -386 407 C-385.576 406.504 -385.152 406.007 -384.715 405.496 C-382.83 403.313 -380.921 401.152 -379 399 C-378.46 398.392 -377.92 397.783 -377.363 397.156 C-368.671 387.896 -355.637 379.835 -342.844 378.727 C-333.877 378.454 -333.877 378.454 -329.688 381.062 C-327.479 384.908 -327.196 386.612 -328 391 C-333.761 404.998 -350.584 411.434 -363.219 417.521 C-371.381 421.517 -378.141 426.056 -385 432 C-385.873 432.608 -386.745 433.217 -387.645 433.844 C-390.727 436.368 -390.727 436.368 -393 443 C-381.78 443 -370.56 443 -359 443 C-359 468.41 -359 493.82 -359 520 C-335.57 520 -312.14 520 -288 520 C-288 517.36 -288 514.72 -288 512 C-286.195 506.393 -282.111 502.941 -277.251 499.909 C-274.238 498.692 -271.734 498.761 -268.487 498.773 C-267.843 498.773 -267.199 498.772 -266.535 498.772 C-264.414 498.773 -262.293 498.789 -260.172 498.805 C-258.698 498.808 -257.224 498.811 -255.75 498.813 C-251.877 498.821 -248.003 498.841 -244.13 498.863 C-240.175 498.883 -236.221 498.892 -232.266 498.902 C-224.51 498.924 -216.755 498.958 -209 499 C-211.016 495.287 -211.016 495.287 -214.188 492.625 C-214.786 492.089 -215.384 491.553 -216 491 C-216 488.667 -216 486.333 -216 484 C-216.66 483.34 -217.32 482.68 -218 482 C-220 480 -220 480 -220.688 476.625 C-219.83 472.102 -218.233 470.83 -214.727 468.066 C-213 467 -213 467 -211 467 C-211 463.37 -211 459.74 -211 456 C-211.834 456.009 -212.668 456.018 -213.528 456.027 C-221.413 456.107 -229.298 456.168 -237.184 456.207 C-241.237 456.228 -245.29 456.256 -249.344 456.302 C-253.26 456.345 -257.176 456.369 -261.093 456.38 C-262.582 456.387 -264.072 456.401 -265.561 456.423 C-275.287 456.559 -281.974 456.112 -289.75 449.75 C-295.346 442.91 -297.114 435.946 -297.797 427.262 C-297.95 425.414 -298.103 423.567 -298.256 421.72 C-298.376 420.249 -298.376 420.249 -298.499 418.747 C-300 400.457 -301.775 382.214 -303.818 363.977 C-305.668 347.435 -307.277 330.88 -308.744 314.3 C-308.861 313 -308.861 313 -308.98 311.673 C-309.124 310.061 -309.266 308.448 -309.404 306.835 C-309.75 302.874 -309.75 302.874 -310.509 298.978 C-311.307 295.762 -311.419 292.471 -311.648 289.176 C-311.766 287.585 -311.884 285.994 -312.003 284.404 C-312.063 283.572 -312.124 282.74 -312.187 281.884 C-313.166 268.518 -314.253 255.21 -316.085 241.929 C-318.678 222.534 -318.678 222.534 -312.523 213.938 C-308.213 208.583 -303.405 204.636 -296.415 203.627 C-293.389 203.48 -290.385 203.457 -287.355 203.479 C-286.199 203.471 -285.042 203.463 -283.851 203.455 C-280.66 203.438 -277.469 203.439 -274.278 203.448 C-270.829 203.453 -267.381 203.435 -263.932 203.42 C-257.183 203.394 -250.434 203.391 -243.685 203.395 C-238.198 203.399 -232.711 203.395 -227.224 203.387 C-226.442 203.386 -225.66 203.384 -224.855 203.383 C-223.267 203.381 -221.679 203.378 -220.09 203.376 C-205.206 203.354 -190.321 203.359 -175.436 203.371 C-161.828 203.381 -148.219 203.359 -134.61 203.321 C-120.626 203.282 -106.642 203.265 -92.658 203.273 C-84.811 203.277 -76.964 203.272 -69.117 203.243 C-62.438 203.22 -55.759 203.217 -49.079 203.241 C-45.673 203.253 -42.268 203.255 -38.862 203.231 C-35.165 203.21 -31.47 203.226 -27.772 203.252 C-26.703 203.237 -25.633 203.222 -24.531 203.207 C-17.238 203.312 -12.458 205.086 -7 210 C-2.684 215.172 -1.119 220.139 -0.375 226.75 C-0.261 227.634 -0.148 228.517 -0.031 229.427 C1.23 239.818 1.982 250.268 2.803 260.701 C3.683 271.785 4.798 282.828 6.062 293.875 C6.407 296.885 6.751 299.896 7.094 302.906 C7.175 303.616 7.256 304.326 7.339 305.057 C8.088 311.68 8.71 318.31 9.286 324.95 C9.915 332.182 10.639 339.403 11.375 346.625 C12.306 355.781 13.186 364.94 14.012 374.105 C14.099 375.071 14.186 376.036 14.275 377.03 C14.706 381.814 15.132 386.599 15.554 391.383 C16.412 401.028 17.377 410.643 18.582 420.251 C20.647 438.768 20.647 438.768 14.91 446.906 C9.443 452.899 3.939 455.716 -4.174 456.104 C-6.798 456.163 -9.42 456.189 -12.044 456.205 C-13.04 456.215 -14.036 456.225 -15.062 456.235 C-18.341 456.267 -21.62 456.292 -24.898 456.316 C-27.177 456.337 -29.455 456.358 -31.733 456.379 C-37.721 456.434 -43.708 456.484 -49.695 456.532 C-55.809 456.583 -61.922 456.638 -68.035 456.693 C-80.023 456.801 -92.012 456.902 -104 457 C-103.387 457.473 -102.774 457.946 -102.142 458.434 C-101.335 459.058 -100.528 459.683 -99.697 460.327 C-98.898 460.944 -98.1 461.562 -97.277 462.198 C-94.404 464.472 -91.741 466.873 -89.062 469.375 C-88.038 470.323 -87.013 471.271 -85.988 472.219 C-84.087 473.986 -82.189 475.758 -80.293 477.531 C-72.219 484.972 -66.032 489.485 -55 491 C-54.856 490.031 -54.711 489.061 -54.562 488.062 C-54 485 -54 485 -53 484 C-49.843 483.736 -46.666 483.81 -43.5 483.812 C-42.52 483.813 -41.541 483.813 -40.531 483.813 C-32.065 483.876 -23.689 484.474 -15.259 485.218 C-8.61 485.804 -1.981 486.234 4.688 486.5 C15.495 486.941 26.239 487.93 37 489 C37.197 487.326 37.197 487.326 37.398 485.617 C42.414 445.753 56.005 406.298 71.625 369.438 C72.086 368.348 72.548 367.258 73.023 366.135 C75.042 361.415 77.097 356.734 79.359 352.125 C82.792 345.655 82.792 345.655 83.859 338.598 C83.157 336.466 83.157 336.466 82.113 334.395 C70.499 309.413 78.045 270.833 85.246 245.48 C85.443 244.768 85.639 244.056 85.842 243.322 C86.246 241.874 86.671 240.431 87.115 238.994 C87.819 236.6 87.819 236.6 88 233 C85.768 229.952 85.768 229.952 83 228 C79.844 229.463 77.175 231.256 74.375 233.312 C64.65 240.204 56.043 244.159 44 243 C30.388 239.107 18.449 224.852 11.688 213.062 C6.699 204.007 2.522 195.43 2 185 C0.742 185.082 -0.516 185.165 -1.812 185.25 C-5.7 185.216 -5.7 185.216 -8 183.562 C-11.642 174.23 -6.943 163.194 -4.418 154.007 C-0.79 140.706 -0.376 130.436 -3.5 116.938 C-5.784 106.45 -6.615 96.697 -6 86 C-6.692 86.217 -7.384 86.433 -8.098 86.656 C-23.135 90.936 -35.275 89.738 -49.008 82.391 C-59.853 75.948 -66.713 67.099 -70.645 55.02 C-72.929 42.039 -69.215 31.334 -62.035 20.633 C-47.45 1.764 -22.952 -6.707 0 0 Z " fill="#020202" transform="translate(628,110)"/>
<path d="M0 0 C1.135 -0.008 2.271 -0.016 3.441 -0.024 C7.248 -0.044 11.054 -0.028 14.861 -0.012 C17.59 -0.016 20.318 -0.028 23.046 -0.039 C29.69 -0.061 36.332 -0.056 42.976 -0.042 C48.375 -0.03 53.775 -0.029 59.175 -0.034 C60.328 -0.035 60.328 -0.035 61.504 -0.036 C63.066 -0.038 64.628 -0.04 66.189 -0.041 C80.832 -0.056 95.475 -0.039 110.118 -0.012 C122.678 0.01 135.238 0.006 147.799 -0.017 C162.388 -0.044 176.977 -0.054 191.566 -0.039 C193.122 -0.037 194.678 -0.036 196.235 -0.034 C197 -0.033 197.766 -0.033 198.555 -0.032 C203.947 -0.028 209.339 -0.035 214.73 -0.047 C221.304 -0.061 227.876 -0.057 234.449 -0.03 C237.802 -0.017 241.155 -0.015 244.508 -0.028 C248.144 -0.042 251.78 -0.025 255.416 0 C256.473 -0.011 257.531 -0.022 258.62 -0.034 C265.326 0.056 268.747 1.123 273.772 5.635 C275.907 8.653 276.173 11.588 276.553 15.229 C276.672 16.331 276.79 17.433 276.912 18.569 C277.031 19.746 277.15 20.923 277.272 22.135 C277.4 23.352 277.528 24.568 277.66 25.822 C278.038 29.426 278.405 33.03 278.772 36.635 C278.96 38.419 279.148 40.203 279.338 41.986 C280.409 52.208 281.235 62.44 282.02 72.688 C282.564 79.587 283.345 86.387 284.338 93.236 C284.96 98.112 285.205 102.996 285.49 107.901 C285.769 111.597 286.236 115.217 286.772 118.885 C287.598 124.685 288.021 130.408 288.272 136.26 C288.55 142.653 289.164 148.811 290.24 155.127 C291.028 160.327 291.477 165.548 291.947 170.784 C292.43 176.131 292.965 181.468 293.565 186.803 C296.058 209.128 296.058 209.128 296.272 219.135 C296.317 220.192 296.317 220.192 296.364 221.27 C296.366 224.572 295.845 226.52 294.068 229.31 C289.651 233.422 283.058 232.299 277.432 232.234 C276.06 232.236 274.688 232.24 273.316 232.246 C269.597 232.256 265.878 232.235 262.159 232.208 C258.265 232.184 254.37 232.187 250.475 232.186 C243.935 232.182 237.395 232.158 230.855 232.122 C223.297 232.08 215.739 232.063 208.181 232.059 C200.13 232.056 192.079 232.037 184.028 232.012 C181.71 232.006 179.393 232.002 177.075 231.999 C173.43 231.993 169.786 231.977 166.142 231.953 C164.169 231.942 162.196 231.94 160.223 231.939 C158.456 231.924 158.456 231.924 156.654 231.909 C155.633 231.904 154.612 231.9 153.559 231.895 C150.604 231.619 148.473 230.829 145.772 229.635 C131.404 226.026 115.463 223.649 101.772 230.635 C101.442 230.965 101.112 231.295 100.772 231.635 C98.004 231.757 95.261 231.814 92.492 231.828 C91.623 231.836 90.755 231.844 89.86 231.853 C86.973 231.877 84.085 231.894 81.197 231.908 C79.721 231.916 79.721 231.916 78.214 231.924 C73.001 231.951 67.787 231.971 62.574 231.985 C57.188 232.002 51.802 232.046 46.416 232.097 C42.277 232.131 38.138 232.143 33.998 232.148 C32.013 232.155 30.028 232.17 28.043 232.194 C25.261 232.226 22.481 232.226 19.699 232.218 C18.88 232.235 18.062 232.251 17.219 232.268 C13.097 232.223 10.551 231.866 7.297 229.221 C3.429 225.26 2.562 222.525 1.99 217.076 C1.812 215.432 1.812 215.432 1.631 213.754 C1.453 211.993 1.453 211.993 1.272 210.197 C1.143 208.977 1.014 207.756 0.881 206.498 C0.502 202.878 0.135 199.257 -0.228 195.635 C-0.321 194.719 -0.414 193.804 -0.51 192.861 C-1.385 184.167 -2.159 175.465 -2.912 166.76 C-3.163 163.864 -3.414 160.968 -3.666 158.072 C-3.73 157.339 -3.793 156.606 -3.859 155.85 C-4.809 144.947 -5.905 134.068 -7.11 123.19 C-8.12 113.945 -8.934 104.688 -9.711 95.421 C-10.586 85.051 -11.63 74.704 -12.752 64.358 C-12.888 63.099 -13.023 61.84 -13.163 60.544 C-13.847 54.222 -14.54 47.902 -15.247 41.583 C-17.484 21.319 -17.484 21.319 -17.779 12.236 C-17.823 11.057 -17.868 9.877 -17.913 8.661 C-17.141 5.248 -15.96 3.827 -13.228 1.684 C-9.106 -0.478 -4.55 -0.048 0 0 Z " fill="#020202" transform="translate(343.22837829589844,321.3650817871094)"/>
<path d="M0 0 C-0.787 6.384 -2.156 12.602 -3.562 18.875 C-3.824 20.043 -4.086 21.211 -4.356 22.415 C-9.307 44.341 -14.365 66.185 -21.236 87.604 C-21.942 89.817 -22.627 92.035 -23.301 94.258 C-43.062 159.266 -43.062 159.266 -65.771 171.992 C-94.153 186.832 -127.029 191.714 -158.562 195.188 C-159.344 195.274 -160.125 195.361 -160.93 195.45 C-172.689 196.723 -184.36 197.383 -196.188 197.375 C-196.87 197.377 -197.553 197.378 -198.256 197.38 C-206.062 197.378 -213.42 196.93 -221 195 C-219.236 193.21 -217.46 191.529 -215.562 189.875 C-212.298 186.212 -210.794 182.52 -209 178 C-208.683 177.283 -208.366 176.567 -208.039 175.828 C-204.804 168.322 -202.841 160.451 -200.705 152.584 C-180.554 78.733 -180.554 78.733 -163 58 C-161.956 56.716 -161.956 56.716 -160.891 55.406 C-149.186 41.626 -133.124 33.101 -116 28 C-112.318 26.797 -108.646 25.563 -104.981 24.309 C-81.699 16.374 -57.373 11.791 -33.345 6.708 C-27.853 5.545 -22.363 4.37 -16.875 3.188 C-15.902 2.98 -14.93 2.773 -13.928 2.56 C-13.042 2.369 -12.155 2.178 -11.242 1.98 C-10.467 1.814 -9.692 1.648 -8.894 1.477 C-2.745 -0.072 -2.745 -0.072 0 0 Z " fill="#FEFEFE" transform="translate(878,678)"/>
<path d="M0 0 C136.62 0 273.24 0 414 0 C414 0.33 414 0.66 414 1 C277.71 1 141.42 1 1 1 C1 3.64 1 6.28 1 9 C1.99 8.67 2.98 8.34 4 8 C6.376 7.91 8.755 7.882 11.134 7.886 C11.856 7.886 12.578 7.886 13.322 7.886 C15.708 7.887 18.094 7.895 20.48 7.902 C22.135 7.904 23.79 7.906 25.445 7.907 C29.8 7.91 34.155 7.92 38.51 7.931 C42.954 7.942 47.398 7.946 51.842 7.951 C60.561 7.962 69.281 7.979 78 8 C78 8.33 78 8.66 78 9 C42.36 9.495 42.36 9.495 6 10 C8.31 14.62 10.62 19.24 13 24 C16.526 36.054 16.544 47.898 16.688 60.375 C16.721 62.383 16.755 64.391 16.791 66.398 C16.875 71.266 16.942 76.133 17 81 C17.895 79.679 17.895 79.679 18.808 78.332 C19.61 77.159 20.412 75.986 21.215 74.812 C21.606 74.234 21.997 73.656 22.4 73.061 C28.332 64.414 35.828 56.391 46 53 C54.778 52.106 54.778 52.106 58.562 54.875 C62.359 60.487 61.832 67.461 61 74 C57.331 89.598 48.199 103.834 36 114 C43.92 114.33 51.84 114.66 60 115 C60.535 138.783 59.267 161.934 56.513 185.56 C56.059 189.451 55.644 193.345 55.242 197.242 C50.467 242.131 50.467 242.131 42.562 252.062 C38.28 255.3 34.537 255.134 29.247 255.177 C28.577 255.184 27.906 255.19 27.215 255.197 C25.003 255.217 22.791 255.228 20.578 255.238 C19.44 255.244 19.44 255.244 18.279 255.251 C14.263 255.271 10.247 255.286 6.23 255.295 C2.097 255.306 -2.036 255.341 -6.17 255.38 C-9.361 255.407 -12.552 255.415 -15.744 255.418 C-17.267 255.423 -18.79 255.435 -20.313 255.453 C-35.448 255.627 -35.448 255.627 -42 251 C-46.464 245.456 -47.34 236.868 -48.688 230.062 C-49.106 228.011 -49.526 225.96 -49.949 223.91 C-50.128 223.014 -50.307 222.119 -50.491 221.196 C-50.916 218.973 -50.916 218.973 -52 217 C-52.315 215.249 -52.585 213.489 -52.832 211.727 C-52.989 210.609 -53.146 209.491 -53.307 208.34 C-53.474 207.114 -53.641 205.888 -53.812 204.625 C-53.986 203.355 -54.16 202.086 -54.339 200.777 C-55.768 190.202 -57.007 179.606 -58.188 169 C-58.272 168.246 -58.356 167.491 -58.443 166.714 C-59.949 153.192 -61.173 139.807 -61.062 126.188 C-61.058 125.101 -61.053 124.015 -61.049 122.896 C-61.037 120.264 -61.019 117.632 -61 115 C-55.06 114.505 -55.06 114.505 -49 114 C-49.918 113.152 -50.836 112.304 -51.781 111.43 C-62.298 101.468 -72.268 90.01 -74 75 C-74.089 74.283 -74.178 73.567 -74.27 72.828 C-74.568 68.693 -74.414 65.742 -71.75 62.438 C-67.942 59.263 -64.094 59.089 -59.273 59.375 C-44.172 62.258 -32.989 75.189 -24.688 87.312 C-23.444 89.199 -22.209 91.091 -21 93 C-21.108 91.902 -21.108 91.902 -21.219 90.781 C-23.518 63.959 -24.485 32.478 -6.613 10.277 C-5.312 8.875 -5.312 8.875 -3 7 C-2.01 7 -1.02 7 0 7 C0 4.69 0 2.38 0 0 Z " fill="#020202" transform="translate(148,659)"/>
<path d="M0 0 C0.822 0.009 1.645 0.018 2.492 0.027 C4.495 0.051 6.498 0.086 8.5 0.125 C7.42 3.45 6.277 6.675 4.875 9.875 C2.385 16.626 2.548 22.74 5.5 29.312 C9.696 36.845 16.258 41.226 23.52 45.57 C27.653 48.815 28.951 53.032 30.125 58 C30.365 58.987 30.605 59.975 30.852 60.992 C32.504 68.976 32.775 76.819 32.93 84.943 C33.18 94.206 33.18 94.206 37.5 102.125 C41.543 102.529 41.543 102.529 45.5 102.125 C47.544 99.858 47.544 99.858 48.5 97.125 C48.83 96.465 49.16 95.805 49.5 95.125 C49.597 93.225 49.631 91.321 49.633 89.418 C49.634 88.274 49.635 87.13 49.637 85.951 C49.633 84.75 49.629 83.55 49.625 82.312 C49.629 81.123 49.633 79.934 49.637 78.709 C49.635 77.561 49.634 76.413 49.633 75.23 C49.631 73.655 49.631 73.655 49.629 72.048 C49.507 69.291 49.107 66.811 48.5 64.125 C47.906 59.869 47.379 55.907 49.746 52.145 C52.815 49.161 55.657 47.717 59.938 47.375 C66.492 47.834 70.603 52.079 74.875 56.688 C79.458 63.561 79.414 70.844 78.035 78.812 C75.587 88.083 70.352 95.623 62.5 101.125 C59.175 103.05 56.597 103.198 52.836 103.164 C52.024 103.158 51.213 103.153 50.376 103.147 C49.757 103.14 49.138 103.132 48.5 103.125 C48.526 103.905 48.552 104.685 48.579 105.489 C48.685 109.097 48.749 112.704 48.812 116.312 C48.854 117.539 48.896 118.766 48.939 120.029 C49.148 135.837 42.545 149.032 31.75 160.375 C26.792 165.129 21.442 168.719 15.5 172.125 C14.51 172.764 13.52 173.404 12.5 174.062 C6.938 176.033 1.475 176.273 -4.082 174.129 C-19.691 165.452 -31.404 148.367 -36.605 131.551 C-37.881 126.299 -38.637 121.542 -38.5 116.125 C-43.45 116.62 -43.45 116.62 -48.5 117.125 C-47.762 109.719 -46.142 102.565 -44.5 95.312 C-44.227 94.086 -43.953 92.859 -43.672 91.596 C-41.646 82.562 -41.646 82.562 -40.5 79.125 C-40.379 77.065 -40.325 75.001 -40.312 72.938 C-40.291 71.307 -40.291 71.307 -40.27 69.645 C-40.484 66.362 -41.105 63.448 -41.959 60.279 C-44.65 49.57 -45.768 38.143 -46 27.125 C-46.03 26.39 -46.061 25.656 -46.092 24.899 C-46.095 21.077 -45.678 19.345 -43.25 16.344 C-42.342 15.612 -41.435 14.879 -40.5 14.125 C-39.768 13.517 -39.036 12.908 -38.281 12.281 C-26.935 4.044 -13.979 -0.296 0 0 Z " fill="#FEFEFE" transform="translate(674.5,170.875)"/>
<path d="M0 0 C1.135 -0.008 2.271 -0.016 3.441 -0.024 C7.248 -0.044 11.054 -0.028 14.861 -0.012 C17.59 -0.016 20.318 -0.028 23.046 -0.039 C29.69 -0.061 36.332 -0.056 42.976 -0.042 C48.375 -0.03 53.775 -0.029 59.175 -0.034 C60.328 -0.035 60.328 -0.035 61.504 -0.036 C63.066 -0.038 64.628 -0.04 66.189 -0.041 C80.832 -0.056 95.475 -0.039 110.118 -0.012 C122.678 0.01 135.238 0.006 147.799 -0.017 C162.388 -0.044 176.977 -0.054 191.566 -0.039 C193.122 -0.037 194.678 -0.036 196.235 -0.034 C197 -0.033 197.766 -0.033 198.555 -0.032 C203.947 -0.028 209.339 -0.035 214.73 -0.047 C221.304 -0.061 227.876 -0.057 234.449 -0.03 C237.802 -0.017 241.155 -0.015 244.508 -0.028 C248.144 -0.042 251.78 -0.025 255.416 0 C256.473 -0.011 257.531 -0.022 258.62 -0.034 C265.326 0.056 268.747 1.123 273.772 5.635 C275.907 8.653 276.173 11.588 276.553 15.229 C276.672 16.331 276.79 17.433 276.912 18.569 C277.031 19.746 277.15 20.923 277.272 22.135 C277.4 23.352 277.528 24.568 277.66 25.822 C278.038 29.426 278.405 33.03 278.772 36.635 C278.96 38.419 279.148 40.203 279.338 41.986 C280.409 52.208 281.235 62.44 282.02 72.688 C282.564 79.587 283.345 86.387 284.338 93.236 C284.96 98.112 285.205 102.996 285.49 107.901 C285.769 111.597 286.236 115.217 286.772 118.885 C287.598 124.685 288.021 130.408 288.272 136.26 C288.55 142.653 289.164 148.811 290.24 155.127 C291.028 160.327 291.477 165.548 291.947 170.784 C292.43 176.131 292.965 181.468 293.565 186.803 C296.058 209.128 296.058 209.128 296.272 219.135 C296.317 220.192 296.317 220.192 296.364 221.27 C296.366 224.572 295.845 226.52 294.068 229.31 C289.651 233.422 283.058 232.299 277.432 232.234 C276.06 232.236 274.688 232.24 273.316 232.246 C269.597 232.256 265.878 232.235 262.159 232.208 C258.265 232.184 254.37 232.187 250.475 232.186 C243.935 232.182 237.395 232.158 230.855 232.122 C223.297 232.08 215.739 232.063 208.181 232.059 C200.13 232.056 192.079 232.037 184.028 232.012 C181.71 232.006 179.393 232.002 177.075 231.999 C173.43 231.993 169.786 231.977 166.142 231.953 C164.169 231.942 162.196 231.94 160.223 231.939 C158.456 231.924 158.456 231.924 156.654 231.909 C155.633 231.904 154.612 231.9 153.559 231.895 C150.604 231.619 148.473 230.829 145.772 229.635 C131.404 226.026 115.463 223.649 101.772 230.635 C101.442 230.965 101.112 231.295 100.772 231.635 C98.004 231.757 95.261 231.814 92.492 231.828 C91.623 231.836 90.755 231.844 89.86 231.853 C86.973 231.877 84.085 231.894 81.197 231.908 C79.721 231.916 79.721 231.916 78.214 231.924 C73.001 231.951 67.787 231.971 62.574 231.985 C57.188 232.002 51.802 232.046 46.416 232.097 C42.277 232.131 38.138 232.143 33.998 232.148 C32.013 232.155 30.028 232.17 28.043 232.194 C25.261 232.226 22.481 232.226 19.699 232.218 C18.88 232.235 18.062 232.251 17.219 232.268 C13.097 232.223 10.551 231.866 7.297 229.221 C3.429 225.26 2.562 222.525 1.99 217.076 C1.812 215.432 1.812 215.432 1.631 213.754 C1.453 211.993 1.453 211.993 1.272 210.197 C1.143 208.977 1.014 207.756 0.881 206.498 C0.502 202.878 0.135 199.257 -0.228 195.635 C-0.321 194.719 -0.414 193.804 -0.51 192.861 C-1.385 184.167 -2.159 175.465 -2.912 166.76 C-3.163 163.864 -3.414 160.968 -3.666 158.072 C-3.73 157.339 -3.793 156.606 -3.859 155.85 C-4.809 144.947 -5.905 134.068 -7.11 123.19 C-8.12 113.945 -8.934 104.688 -9.711 95.421 C-10.586 85.051 -11.63 74.704 -12.752 64.358 C-12.888 63.099 -13.023 61.84 -13.163 60.544 C-13.847 54.222 -14.54 47.902 -15.247 41.583 C-17.484 21.319 -17.484 21.319 -17.779 12.236 C-17.823 11.057 -17.868 9.877 -17.913 8.661 C-17.141 5.248 -15.96 3.827 -13.228 1.684 C-9.106 -0.478 -4.55 -0.048 0 0 Z M-4.08 14.502 C-8.519 22.746 -4.669 37.329 -3.58 46.189 C-2.253 57.05 -1.193 67.93 -0.166 78.822 C-0.084 79.684 -0.002 80.546 0.082 81.433 C0.817 89.18 1.551 96.926 2.195 104.68 C3.782 123.736 5.83 142.744 7.834 161.76 C8.47 167.799 9.105 173.839 9.737 179.879 C9.987 182.257 10.238 184.635 10.49 187.012 C10.645 188.493 10.801 189.974 10.955 191.456 C11.029 192.159 11.103 192.862 11.179 193.586 C11.741 199.049 12.136 204.514 12.444 209.997 C13.05 214.876 14.942 218.117 18.767 221.29 C23.193 223.271 27.292 223.052 32.089 223.023 C33.664 223.031 33.664 223.031 35.27 223.039 C38.792 223.053 42.314 223.046 45.836 223.039 C48.359 223.045 50.882 223.052 53.405 223.06 C59.55 223.076 65.694 223.078 71.839 223.073 C76.834 223.069 81.829 223.07 86.823 223.075 C87.889 223.076 87.889 223.076 88.977 223.078 C90.421 223.079 91.865 223.081 93.31 223.082 C106.852 223.096 120.395 223.09 133.937 223.079 C146.326 223.069 158.715 223.082 171.103 223.106 C183.825 223.13 196.547 223.14 209.269 223.133 C216.411 223.13 223.553 223.132 230.695 223.15 C237.41 223.166 244.124 223.161 250.839 223.142 C253.306 223.139 255.772 223.142 258.238 223.152 C261.601 223.165 264.964 223.154 268.327 223.136 C269.796 223.151 269.796 223.151 271.294 223.165 C277.096 223.102 280.324 222.448 284.772 218.635 C290.404 210.908 286.387 193.924 285.6 184.704 C285.398 182.336 285.205 179.967 285.014 177.598 C284.321 169.174 283.498 160.78 282.444 152.393 C281.893 147.956 281.537 143.535 281.272 139.072 C280.973 134.073 280.494 129.151 279.834 124.186 C278.768 115.935 277.991 107.672 277.272 99.385 C277.034 96.671 276.794 93.958 276.553 91.244 C276.492 90.555 276.43 89.865 276.367 89.155 C275.811 82.955 275.196 76.762 274.568 70.569 C274.003 64.996 273.467 59.422 272.944 53.845 C272.563 49.83 272.163 45.816 271.759 41.802 C271.557 39.75 271.362 37.696 271.175 35.642 C270.898 32.619 270.594 29.6 270.283 26.58 C270.206 25.668 270.129 24.755 270.049 23.815 C269.399 17.853 268.171 14.783 263.772 10.635 C260.847 8.867 258.699 8.384 255.298 8.378 C254.402 8.371 253.506 8.365 252.583 8.358 C251.603 8.361 250.622 8.364 249.612 8.367 C248.045 8.361 248.045 8.361 246.447 8.354 C242.935 8.341 239.424 8.343 235.913 8.344 C233.4 8.338 230.887 8.332 228.374 8.324 C222.249 8.308 216.125 8.302 210.001 8.301 C205.023 8.3 200.045 8.296 195.067 8.289 C180.955 8.272 166.842 8.263 152.73 8.264 C151.589 8.264 151.589 8.264 150.424 8.264 C149.663 8.264 148.901 8.264 148.116 8.265 C135.769 8.265 123.423 8.246 111.076 8.218 C98.399 8.189 85.723 8.175 73.046 8.177 C65.929 8.178 58.811 8.172 51.694 8.151 C45.001 8.131 38.309 8.131 31.616 8.146 C29.158 8.148 26.699 8.143 24.241 8.131 C20.889 8.116 17.537 8.125 14.185 8.14 C13.209 8.13 12.233 8.12 11.228 8.109 C4.298 8.18 0.859 9.522 -4.08 14.502 Z " fill="#F2F3F3" transform="translate(343.22837829589844,321.3650817871094)"/>
<path d="M0 0 C0.881 0.549 0.881 0.549 1.78 1.108 C10.529 6.699 17.966 13.505 25.453 20.656 C34.89 29.636 44.331 37.393 57 41 C55.68 52.399 53.963 63.694 52 75 C24.48 76.044 4.197 68.176 -18.312 52.688 C-31.22 43.955 -44.727 42.553 -60 44 C-64.18 44.875 -68.016 46.304 -71.969 47.906 C-74.902 48.965 -76.919 49.23 -80 49 C-80.66 47.68 -81.32 46.36 -82 45 C-72.042 36.431 -63.737 33.497 -50.625 33.75 C-49.533 33.755 -48.441 33.76 -47.316 33.766 C-39.31 33.845 -39.31 33.845 -37 35 C-35.463 35.225 -33.92 35.408 -32.375 35.562 C-31.558 35.646 -30.74 35.73 -29.898 35.816 C-28.959 35.907 -28.959 35.907 -28 36 C-28.666 32.837 -28.666 32.837 -31.273 31.832 C-49.205 25.938 -66.985 28.482 -83.949 36.363 C-86.414 37.129 -87.617 36.938 -90 36 C-92 34 -92 34 -92.008 32.094 C-89.282 26.43 -79.126 23.8 -73.438 21.66 C-60.562 17.693 -46.013 17.015 -33.145 21.332 C-30.388 22.191 -27.864 22.232 -25 22 C-25 21.34 -25 20.68 -25 20 C-25.99 19.546 -26.98 19.092 -28 18.625 C-28.557 18.37 -29.114 18.115 -29.688 17.852 C-49.691 10.485 -72.232 14.859 -91.152 23.301 C-93 24 -93 24 -96 24 C-97.278 21.894 -98.031 20.538 -97.887 18.047 C-95.885 13.425 -89.377 11.842 -85 10 C-63.063 1.918 -43.438 3.564 -21 8 C-24.235 4.514 -27.008 2.196 -31.375 0.312 C-32.27 -0.083 -33.164 -0.479 -34.086 -0.887 C-41.849 -3.853 -48.638 -4.399 -56.938 -4.625 C-58.098 -4.664 -59.259 -4.702 -60.455 -4.742 C-63.303 -4.836 -66.151 -4.922 -69 -5 C-68.707 -6.863 -68.707 -6.863 -68 -9 C-48.692 -21.751 -17.984 -11.217 0 0 Z " fill="#FEFEFE" transform="translate(513,568)"/>
<path d="M0 0 C2.598 2.415 2.992 3.936 3.434 7.484 C3.457 8.906 3.456 10.328 3.438 11.75 C3.434 12.517 3.43 13.284 3.426 14.074 C3.181 24.428 2.682 38.637 -2 48 C-2.103 49.196 -2.206 50.393 -2.312 51.625 C-2.746 55.881 -3.681 59.853 -4.773 63.988 C-7.128 73.146 -8.943 82.393 -10.749 91.672 C-14.086 108.791 -17.652 125.834 -21.59 142.824 C-22.834 148.197 -23.961 153.584 -25 159 C-28.15 159.973 -31.301 160.943 -34.453 161.91 C-36.632 162.58 -38.809 163.253 -40.984 163.934 C-41.856 164.203 -42.727 164.472 -43.625 164.75 C-44.401 164.992 -45.177 165.235 -45.977 165.484 C-48 166 -48 166 -51 166 C-50.331 158.941 -48.655 152.291 -46.875 145.438 C-44.236 135.094 -41.759 124.731 -39.438 114.312 C-36.727 102.179 -33.915 90.076 -30.971 77.998 C-30.002 74.018 -29.046 70.035 -28.09 66.052 C-27.137 62.092 -26.18 58.133 -25.222 54.174 C-24.749 52.22 -24.279 50.265 -23.811 48.31 C-21.373 38.147 -18.826 28.025 -15.906 17.988 C-15.675 17.17 -15.444 16.352 -15.205 15.509 C-13.765 10.686 -12.011 7.04 -9 3 C-8.546 2.381 -8.092 1.762 -7.625 1.125 C-5.022 -0.677 -3.063 -0.447 0 0 Z " fill="#FEFEFE" transform="translate(903,510)"/>
<path d="M0 0 C1.955 0.005 1.955 0.005 3.949 0.01 C10.047 0.069 16.033 0.31 22.09 1 C27.646 1.534 33.235 1.63 38.812 1.812 C40.676 1.877 40.676 1.877 42.578 1.943 C45.614 2.048 48.651 2.151 51.688 2.25 C50.125 8.097 48.538 13.152 45.062 18.188 C43.175 20.955 41.749 23.064 40.688 26.25 C13.245 24.952 -12.92 17.335 -39.312 10.25 C-39.312 7.94 -39.312 5.63 -39.312 3.25 C-26.194 1.066 -13.291 -0.046 0 0 Z " fill="#FEFEFE" transform="translate(612.3125,845.75)"/>
<path d="M0 0 C1.263 -0.003 2.525 -0.005 3.826 -0.008 C4.485 -0.004 5.143 0.001 5.822 0.005 C7.807 0.015 9.793 0.004 11.779 -0.008 C27.787 0.025 27.787 0.025 32.582 3.785 C34.272 7.73 34.374 11.702 34.645 15.953 C35.197 23.28 35.895 30.551 36.854 37.836 C37.974 46.402 38.964 54.936 39.145 63.578 C39.19 64.671 39.19 64.671 39.237 65.786 C39.239 69.336 38.967 70.925 36.492 73.535 C11.864 88.501 -11.465 90.928 -39.355 84.266 C-43.674 82.797 -44.906 82.073 -47.133 78.074 C-48.508 74.242 -49.262 70.337 -49.918 66.328 C-51.011 60.007 -51.011 60.007 -52.48 53.766 C-54.526 45.583 -54.471 37.659 -54.355 29.266 C-53.035 28.606 -51.715 27.946 -50.355 27.266 C-46.225 42.923 -46.225 42.923 -45.855 47.766 C-45.358 54.06 -43.476 60.161 -41.879 66.25 C-41.013 69.583 -40.186 72.924 -39.355 76.266 C-33.047 77.728 -26.758 78.925 -20.355 79.891 C-19.518 80.025 -18.68 80.159 -17.816 80.297 C-6.942 81.947 0.398 81.119 10.707 77.016 C11.744 76.62 12.781 76.224 13.85 75.816 C19.62 73.584 25.163 71.135 30.645 68.266 C30.148 48.508 30.148 48.508 28.117 28.867 C27.432 23.65 27.162 18.433 26.891 13.18 C26.831 10.33 26.831 10.33 25.645 8.266 C18.808 6.767 11.675 6.926 4.707 6.703 C2.823 6.638 2.823 6.638 0.9 6.572 C-2.185 6.467 -5.27 6.365 -8.355 6.266 C-8.85 4.286 -8.85 4.286 -9.355 2.266 C-5.796 -0.107 -4.222 0.008 0 0 Z " fill="#0F0F0F" transform="translate(226.35546875,309.734375)"/>
<path d="M0 0 C3.34 3.12 5.919 6.568 8.5 10.312 C14 18.15 19.947 25.586 26 33 C27.141 34.4 27.141 34.4 28.305 35.828 C31.012 39.14 33.724 42.447 36.44 45.751 C53.893 67.002 70.28 88.525 83 113 C83.334 113.64 83.667 114.28 84.011 114.939 C94.33 135.038 102.418 160.209 96.875 182.875 C93.924 191.839 89.953 201.389 82 207 C79.789 207.676 79.789 207.676 78 208 C77.625 205.938 77.625 205.938 78 203 C79.16 201.566 79.16 201.566 80.688 200 C90.803 189.118 90.521 173.47 90.132 159.612 C88.04 118.174 58.031 81.173 33.562 50.062 C33.126 49.507 32.689 48.951 32.239 48.379 C30.267 45.872 28.292 43.367 26.307 40.871 C0 7.766 0 7.766 0 0 Z " fill="#F2F3F3" transform="translate(792,290)"/>
<path d="M0 0 C0.966 16.816 -7.638 33.116 -18 46 C-18.603 46.786 -19.207 47.573 -19.828 48.383 C-22.667 51.695 -24.551 53.758 -28.953 54.492 C-31.685 54.499 -34.294 54.358 -37 54 C-34.361 33.943 -22.926 14.324 -7 2 C-4.273 0.389 -3.234 0 0 0 Z " fill="#FEFEFE" transform="translate(198,720)"/>
<path d="M0 0 C64.02 0 128.04 0 194 0 C194 1.32 194 2.64 194 4 C129.98 4 65.96 4 0 4 C0 2.68 0 1.36 0 0 Z " fill="#F2F3F3" transform="translate(393,440)"/>
<path d="M0 0 C62.7 0 125.4 0 190 0 C190.33 1.32 190.66 2.64 191 4 C127.97 4 64.94 4 0 4 C0 2.68 0 1.36 0 0 Z " fill="#FEFEFE" transform="translate(388,394)"/>
<path d="M0 0 C18.793 7.988 30.285 25.847 38 44 C38.384 45.656 38.735 47.321 39 49 C38.051 48.175 37.102 47.35 36.125 46.5 C34.753 45.33 33.378 44.164 32 43 C31.286 42.397 30.572 41.793 29.836 41.172 C24.915 37.124 19.836 33.527 14.5 30.062 C4.326 23.425 -6.23 15.548 -11 4 C-11 2.68 -11 1.36 -11 0 C-7.389 -1.805 -3.761 -0.947 0 0 Z " fill="#FEFEFE" transform="translate(179,487)"/>
<path d="M0 0 C3.542 -0.058 7.083 -0.094 10.625 -0.125 C11.624 -0.142 12.623 -0.159 13.652 -0.176 C18.82 -0.21 23.191 -0.157 28 2 C32.089 6.089 30.225 18.989 30.24 24.256 C30.25 26.325 30.281 28.394 30.312 30.463 C30.32 32.425 30.32 32.425 30.328 34.426 C30.337 35.616 30.347 36.806 30.356 38.032 C30 41 30 41 28.759 42.797 C16.275 51.337 0.21 52.272 -14.062 49.688 C-21.453 48.246 -21.453 48.246 -24 45 C-24.708 42.691 -24.708 42.691 -25.168 39.992 C-25.339 39.005 -25.51 38.017 -25.686 37 C-25.851 35.969 -26.017 34.938 -26.188 33.875 C-26.365 32.867 -26.542 31.859 -26.725 30.82 C-29.63 13.503 -29.63 13.503 -26 7 C-20.144 2.079 -13.256 2.565 -6 3 C-6 3.66 -6 4.32 -6 5 C-11.28 6.65 -16.56 8.3 -22 10 C-22.404 21.3 -20.863 31.88 -19 43 C-2.678 47.941 8.331 45.741 24 40 C24 28.45 24 16.9 24 5 C16.41 4.67 8.82 4.34 1 4 C0.67 2.68 0.34 1.36 0 0 Z " fill="#E3E4E4" transform="translate(570,482)"/>
<path d="M0 0 C0.99 0.33 1.98 0.66 3 1 C3.345 9.96 2.536 17.936 0.375 26.625 C0.106 27.748 -0.164 28.871 -0.441 30.028 C-2.677 39.151 -5.354 48.091 -8.332 56.996 C-11.411 66.23 -13.944 75.485 -16 85 C-16.66 84.67 -17.32 84.34 -18 84 C-18.699 56.5 -18.483 26.483 -2 3 C-1.34 2.01 -0.68 1.02 0 0 Z " fill="#F2F3F3" transform="translate(248,441)"/>
<path d="M0 0 C57.09 0 114.18 0 173 0 C173 1.32 173 2.64 173 4 C116.24 4 59.48 4 1 4 C0.67 2.68 0.34 1.36 0 0 Z " fill="#F2F3F3" transform="translate(394,454)"/>
<path d="M0 0 C1.481 1.258 1.481 1.258 3 3 C3.584 10.438 2.315 17.605 1.125 24.938 C0.864 26.611 0.864 26.611 0.598 28.318 C-0.753 36.858 -2.206 45.345 -4.5 53.688 C-5.951 59.376 -6.746 65.035 -7.434 70.86 C-7.932 74.763 -8.726 78.576 -9.523 82.43 C-11.677 93.844 -11.531 105.361 -11.625 116.938 C-11.662 120.227 -11.702 123.516 -11.748 126.805 C-11.775 128.833 -11.796 130.862 -11.811 132.891 C-11.821 133.797 -11.832 134.703 -11.842 135.636 C-11.852 136.832 -11.852 136.832 -11.862 138.052 C-12 140 -12 140 -13 142 C-13.66 142 -14.32 142 -15 142 C-21.858 113.875 -16.783 84.89 -11 57 C-10.568 54.88 -10.135 52.76 -9.703 50.641 C-6.309 34.108 -6.309 34.108 -4.914 28.727 C-4.051 25.207 -3.468 21.778 -3 18.188 C-2.171 12.087 -1.16 6.045 0 0 Z " fill="#E3E4E4" transform="translate(731,299)"/>
<path d="M0 0 C43.56 0 87.12 0 132 0 C132.33 1.32 132.66 2.64 133 4 C132 5 132 5 129.815 5.123 C128.843 5.122 127.87 5.121 126.869 5.12 C125.756 5.122 124.644 5.123 123.499 5.124 C122.268 5.121 121.037 5.117 119.769 5.114 C118.482 5.114 117.194 5.114 115.867 5.114 C112.326 5.114 108.785 5.108 105.244 5.101 C101.547 5.095 97.85 5.095 94.153 5.093 C87.148 5.09 80.143 5.082 73.137 5.072 C65.164 5.061 57.191 5.055 49.218 5.05 C32.812 5.04 16.406 5.022 0 5 C0 3.35 0 1.7 0 0 Z " fill="#CACBCB" transform="translate(387,382)"/>
<path d="M0 0 C2.31 0 4.62 0 7 0 C6.474 1.052 6.474 1.052 5.938 2.125 C4.806 5.596 5.032 7.5 6 11 C7.447 13.322 7.447 13.322 9 15 C9.99 12.03 10.98 9.06 12 6 C11.34 6 10.68 6 10 6 C10.33 4.68 10.66 3.36 11 2 C13.97 2 16.94 2 20 2 C21 6 21 6 19.758 8.254 C18.888 9.613 18.888 9.613 18 11 C16.846 13.604 15.862 16.266 14.875 18.938 C14.611 19.628 14.346 20.318 14.074 21.029 C12.589 25.006 11.544 28.764 11 33 C8.36 33 5.72 33 3 33 C3.33 32.299 3.66 31.598 4 30.875 C5.149 27.571 5.506 25.471 5 22 C2.625 19.124 2.625 19.124 0 17 C-0.103 17.66 -0.206 18.32 -0.312 19 C-1.192 22.838 -2.57 26.331 -4 30 C-6.601 29.644 -7.7 29.392 -9.324 27.266 C-9.703 26.53 -10.082 25.794 -10.473 25.035 C-10.897 24.235 -11.322 23.435 -11.76 22.611 C-12.19 21.77 -12.62 20.929 -13.062 20.062 C-13.922 18.404 -14.787 16.749 -15.66 15.098 C-16.038 14.36 -16.416 13.623 -16.805 12.864 C-18.017 10.699 -18.017 10.699 -21 9 C-19.25 5.125 -19.25 5.125 -17 4 C-14.328 3.866 -11.677 3.957 -9 4 C-8.248 6.339 -7.88 7.617 -8.625 10 C-8.749 10.66 -8.873 11.32 -9 12 C-8.01 13.32 -7.02 14.64 -6 16 C-4.02 10.72 -2.04 5.44 0 0 Z " fill="#0F0F0F" transform="translate(217,334)"/>
<path d="M0 0 C49.83 0 99.66 0 151 0 C151 1.32 151 2.64 151 4 C101.5 4 52 4 1 4 C0.67 2.68 0.34 1.36 0 0 Z " fill="#F2F3F3" transform="translate(396,474)"/>
<path d="M0 0 C49.5 0 99 0 150 0 C150 1.32 150 2.64 150 4 C100.17 4 50.34 4 -1 4 C-0.67 2.68 -0.34 1.36 0 0 Z " fill="#F2F3F3" transform="translate(391,417)"/>
<path d="M0 0 C47.85 0 95.7 0 145 0 C145 1.32 145 2.64 145 4 C97.15 4 49.3 4 0 4 C0 2.68 0 1.36 0 0 Z " fill="#F2F3F3" transform="translate(389,406)"/>
<path d="M0 0 C1.051 0.027 2.101 0.054 3.184 0.082 C4.361 0.134 4.361 0.134 5.562 0.188 C4.305 6.355 0.532 9.838 -4.504 13.289 C-12.323 18.162 -20.515 22.354 -28.697 26.575 C-34.647 29.678 -40.127 33.065 -45.438 37.188 C-45.768 36.528 -46.097 35.867 -46.438 35.188 C-39.291 19.791 -24.757 8.772 -9.922 1.453 C-6.332 0.149 -3.792 -0.128 0 0 Z " fill="#FEFEFE" transform="translate(286.4375,496.8125)"/>
<path d="M0 0 C-0.33 1.65 -0.66 3.3 -1 5 C-4.3 5.33 -7.6 5.66 -11 6 C-10.954 7.169 -10.907 8.338 -10.859 9.543 C-10.822 11.091 -10.785 12.639 -10.75 14.188 C-10.7 15.341 -10.7 15.341 -10.648 16.518 C-10.578 20.646 -10.671 22.502 -13.016 26.051 C-13.67 26.694 -14.325 27.337 -15 28 C-18.752 27.829 -20.481 27.566 -23.062 24.75 C-26.701 18.481 -29.431 11.069 -31 4 C-20.974 -0.804 -10.87 -0.119 0 0 Z " fill="#0F0F0F" transform="translate(668,230)"/>
<path d="M0 0 C35.97 0 71.94 0 109 0 C109 1.32 109 2.64 109 4 C73.03 4 37.06 4 0 4 C0 2.68 0 1.36 0 0 Z " fill="#E3E4E4" transform="translate(400,511)"/>
<path d="M0 0 C0.33 0 0.66 0 1 0 C1.014 0.944 1.028 1.887 1.043 2.859 C1.517 15.617 4.36 25.339 13.461 34.805 C17.567 38.355 22.065 40.787 27 43 C28.081 43.568 28.081 43.568 29.184 44.148 C33.53 45.462 37.802 45.208 42.312 45.125 C43.244 45.116 44.175 45.107 45.135 45.098 C47.423 45.074 49.712 45.041 52 45 C50.709 47.581 49.808 47.68 47.125 48.625 C37.012 51.735 27.63 50.049 18 46 C8.452 40.795 0.258 33.02 -3.379 22.609 C-5.232 14.825 -4.328 8.188 -1 1 C-0.67 0.67 -0.34 0.34 0 0 Z " fill="#F2F3F3" transform="translate(568,142)"/>
<path d="M0 0 C29.7 0 59.4 0 90 0 C90 1.32 90 2.64 90 4 C60.3 4 30.6 4 0 4 C0 2.68 0 1.36 0 0 Z " fill="#E3E4E4" transform="translate(399,499)"/>
<path d="M0 0 C29.7 0 59.4 0 90 0 C90 1.32 90 2.64 90 4 C60.63 4 31.26 4 1 4 C0.67 2.68 0.34 1.36 0 0 Z " fill="#F2F3F3" transform="translate(385,365)"/>
<path d="M0 0 C10.843 0.461 18.587 8.673 25.703 16.156 C33.642 25.021 39.672 35.597 43 47 C38.576 45.094 37.062 42.148 34.812 38.062 C26.729 24.039 16.189 11.519 2.055 3.375 C1.377 2.921 0.699 2.467 0 2 C0 1.34 0 0.68 0 0 Z " fill="#E3E4E4" transform="translate(86,727)"/>
<path d="M0 0 C0.764 -0.021 1.528 -0.041 2.314 -0.062 C7.974 -0.102 7.974 -0.102 11.098 1.766 C11.581 2.255 12.064 2.745 12.562 3.25 C12.232 4.57 11.903 5.89 11.562 7.25 C10.535 7.276 9.508 7.302 8.449 7.328 C0.629 7.618 -5.955 8.244 -13.203 11.508 C-15.742 12.351 -16.957 12.149 -19.438 11.25 C-19.768 9.93 -20.097 8.61 -20.438 7.25 C-19.003 6.267 -17.565 5.288 -16.125 4.312 C-15.324 3.767 -14.524 3.222 -13.699 2.66 C-9.281 -0.094 -5.043 0.034 0 0 Z " fill="#0F0F0F" transform="translate(654.4375,200.75)"/>
<path d="M0 0 C1.756 0.014 1.756 0.014 3.547 0.027 C4.439 0.039 5.331 0.051 6.25 0.062 C6.25 1.053 6.25 2.043 6.25 3.062 C0.503 5.799 -5.404 7.442 -11.543 9.098 C-16.067 10.459 -18.095 11.08 -20.75 15.062 C-21.74 14.733 -22.73 14.402 -23.75 14.062 C-24.1 9.689 -24.1 9.689 -22.75 7.062 C-15.498 2.133 -8.658 -0.087 0 0 Z " fill="#0F0F0F" transform="translate(197.75,313.9375)"/>
<path d="M0 0 C1.32 0.33 2.64 0.66 4 1 C3.739 7.397 1.641 10.651 -3 15 C-6.463 17.618 -8.669 18.371 -13 18 C-13.33 17.01 -13.66 16.02 -14 15 C-12.987 14.381 -12.987 14.381 -11.953 13.75 C-5.831 9.786 -2.636 6.829 0 0 Z " fill="#0F0F0F" transform="translate(667,299)"/>
<path d="M0 0 C3.536 0.536 3.536 0.536 5 2 C5.125 4.5 5.125 4.5 5 7 C4 8 4 8 1.5 8.125 C-1 8 -1 8 -2 7 C-2.188 4.562 -2.188 4.562 -2 2 C-1.34 1.34 -0.68 0.68 0 0 Z " fill="#E3E4E4" transform="translate(421,336)"/>
<path d="M0 0 C3.536 0.536 3.536 0.536 5 2 C5.125 4.5 5.125 4.5 5 7 C4 8 4 8 1.438 8.062 C0.633 8.042 -0.171 8.021 -1 8 C-1.625 5.125 -1.625 5.125 -2 2 C-1.34 1.34 -0.68 0.68 0 0 Z " fill="#F2F3F3" transform="translate(409,336)"/>
<path d="M0 0 C3.536 0.536 3.536 0.536 5 2 C5.125 4.5 5.125 4.5 5 7 C4 8 4 8 1.438 8.062 C0.633 8.042 -0.171 8.021 -1 8 C-1.625 5.125 -1.625 5.125 -2 2 C-1.34 1.34 -0.68 0.68 0 0 Z " fill="#E3E4E4" transform="translate(397,336)"/>
<path d="M0 0 C1.207 0.031 1.207 0.031 2.438 0.062 C3.562 4.812 3.562 4.812 2.438 7.062 C0.771 7.105 -0.896 7.103 -2.562 7.062 C-3.562 6.062 -3.562 6.062 -3.688 3.562 C-3.517 0.156 -3.419 0.083 0 0 Z " fill="#F2F3F3" transform="translate(386.5625,336.9375)"/>
<path d="M0 0 C1.65 0 3.3 0 5 0 C5 4.29 5 8.58 5 13 C2.334 9.445 1.586 8.298 0.812 4.25 C0.654 3.451 0.495 2.652 0.332 1.828 C0.222 1.225 0.113 0.622 0 0 Z " fill="#F2F3F3" transform="translate(647,238)"/>
<path d="M0 0 C3.494 3.236 6.647 6.843 9 11 C9 11.99 9 12.98 9 14 C5.064 12.688 4.713 11.172 2.812 7.562 C2.018 6.079 2.018 6.079 1.207 4.566 C0 2 0 2 0 0 Z " fill="#CACBCB" transform="translate(792,290)"/>
<path d="M0 0 C0.33 0 0.66 0 1 0 C1 3.3 1 6.6 1 10 C0.34 8.68 -0.32 7.36 -1 6 C-1.66 6.99 -2.32 7.98 -3 9 C-2.502 5.265 -2.125 3.188 0 0 Z " fill="#BFC0C1" transform="translate(568,142)"/>
<path d="M0 0 C0.99 0.33 1.98 0.66 3 1 C2.67 2.32 2.34 3.64 2 5 C0.68 4.67 -0.64 4.34 -2 4 C-1.34 2.68 -0.68 1.36 0 0 Z " fill="#D8D8D9" transform="translate(561,504)"/>
<path d="M0 0 C1.98 0.495 1.98 0.495 4 1 C3.34 2.32 2.68 3.64 2 5 C1.01 4.34 0.02 3.68 -1 3 C-0.67 2.01 -0.34 1.02 0 0 Z " fill="#E3E4E4" transform="translate(570,504)"/>
</svg>